<?xml version="1.0" encoding="utf-8"?>
<!-- Generator: Adobe Illustrator 21.0.2, SVG Export Plug-In . SVG Version: 6.00 Build 0)  -->
<svg version="1.1" id="Livello_1" xmlns="http://www.w3.org/2000/svg" xmlns:xlink="http://www.w3.org/1999/xlink" x="0px" y="0px"
	 viewBox="0 0 500 500" style="enable-background:new 0 0 500 500;" xml:space="preserve">
<style type="text/css">
	.st0{fill:#FF1744;}
</style>
<path class="st0" d="M422.8,199.9L404.7,218c-1.1,1.1-2.5,1.7-3.9,1.8c-2.6,0.3-5.4-1-6.7-3.9c-1.1-2.4-0.4-5.2,1.4-7l0,0l8.2-8.2
	l28.3-28.3c2.2-2.2,2.7-5.6,1-8.2c-2.3-3.5-7.2-3.9-10-1L403.2,183l-44.1,44.1c-2.2,2.2-5.6,2.7-8.2,1c-3.5-2.3-3.9-7.2-1-10
	l27.4-27.4l0,0l0.2-0.3c1.9-2.4,2.2-5.8,0.3-8.2c-2.4-3.2-7-3.4-9.7-0.7L295,254.7L283.6,266c-2.5,2.5-6.6,2.5-9.1,0s-2.5-6.6,0-9.1
	l0,0l11.3-11.3l0,0l0,0l18.3-18.3l0,0l0,0c1.8-1.8,2.5-4.4,1.5-6.8c-1.9-4.7-7.5-5.5-10.7-2.4l-27.4,27.4l0,0
	c-2.5,2.5-6.6,2.5-9.1,0s-2.5-6.6,0-9.1l0,0l63.9-63.9c2.2-2.2,2.7-5.6,1-8.2c-2.3-3.5-7.2-3.9-10-1L295,181.6l0,0
	c-2.8,2.8-7.7,2.5-10-1c-1.7-2.6-1.2-6,1-8.2l63.9-63.9l0,0l0,0c0.6-0.6,1.1-1.3,1.4-2c1.1-2.6,0.5-5.7-1.9-7.6
	c-2.6-2.1-6.5-1.7-8.8,0.7l-1.3,1.3l-89.8,89.8c-2.2,2.2-5.6,2.7-8.2,1c-3.5-2.3-3.9-7.2-1-10l54.8-54.8c2.2-2.2,2.7-5.6,1-8.2
	c-2.3-3.5-7.2-3.9-10-1l0,0L194.8,209c-2.2,2.2-5.6,2.7-8.2,1c-3.5-2.3-3.9-7.2-1-10l87.8-87.8c5.1-5.1-0.4-13.7-7.1-11
	c-0.1,0-0.2,0.1-0.2,0.1c-10.9,4.3-21.2,10.5-30.3,18.7c-1.2-1.1-2.4-2.1-3.6-3.1c-3.4-2.8-7-5.3-10.7-7.6
	c-39-24.2-90.8-19.5-124.6,14.4l0,0C62.7,157.5,58,209.3,82.2,248.3c2.3,3.7,4.8,7.2,7.6,10.7c0.9,1.1,1.9,2.3,2.9,3.4
	c1.3,1.4,2.5,2.9,3.9,4.3l1.9,1.9l9.1,9.1l36.5,36.5l45.7,45.7l36.5,36.5l9.1,9.1l138.9-138.9l57.7-57.7c2.8-2.8,2.5-7.7-1-10
	C428.5,197.2,425,197.7,422.8,199.9z"/>
</svg>
