<?xml version="1.0" encoding="utf-8"?>
<!-- Generator: Adobe Illustrator 21.0.2, SVG Export Plug-In . SVG Version: 6.00 Build 0)  -->
<svg version="1.1" id="Livello_1" xmlns="http://www.w3.org/2000/svg" xmlns:xlink="http://www.w3.org/1999/xlink" x="0px" y="0px"
	 viewBox="0 0 1000 300" style="enable-background:new 0 0 1000 300;" xml:space="preserve">
<g>
	<g>
		<g>
			<path d="M169.5,42.9C104.6,80.6,58.4,147,48.4,224.8c36,20.6,77.7,32.3,122.2,32.3c43.6,0,84.6-11.3,120.1-31.2
				C281.1,147.7,234.8,80.8,169.5,42.9z"/>
		</g>
	</g>
	<g>
		<path d="M616.1,133.8l-3.6-0.7c-10.1-2-20.4-2.7-20.4-7c0-3.5,4.4-4.7,11.8-4.7c11.1,0,21.6,3.2,31.1,8.9l13.2-25.8
			c-19.1-9.4-33.5-11.3-46.8-11.3c-24.8,0-41.1,12.7-43.7,30.6C554.2,106.5,540,95,515.9,95h-49.7v90.6L431.5,95h-38.4l-40,104.4
			h34.3l5.9-17.3h37.3l6,17.3h29.5h5.3H499v-29.8h17.4c25.7,0,40.1-13.2,42-32.5c3.2,12.3,14,20.8,34.2,24l3.3,0.5
			c13,2,19.1,2.7,19.1,7.1c0,3.7-4.4,4.8-10.6,4.8c-17.7,0-27.1-5.6-36.1-10.8l-14.7,25.2c12.3,8.8,29.7,13.6,49.9,13.6
			c25,0,46.7-11,46.7-37C650.2,150.2,639.5,138.4,616.1,133.8z M402.7,155.1l9.4-27.3l9.4,27.3H402.7z M515.6,141.4H499v-17.2h16.6
			c5,0,9.9,3.3,9.9,8.6S520.6,141.4,515.6,141.4z"/>
		<path d="M935.6,147.6c8.3-4.5,13.9-12,13.9-22c0-17.9-12-30.5-42.1-30.5h-50v90.6L822.6,95h-38.4l-28.5,74.3h-48.5V95h-32.8v104.4
			h69.8h12.2h22.2l5.9-17.3h37.3l6,17.3h29.5h5.3h47.6c29.3,0,41.3-12.1,41.3-29.9C951.6,159.9,944.8,151.1,935.6,147.6z
			 M793.8,155.1l9.4-27.3l9.4,27.3H793.8z M890.2,120.3H906c7.3,0,9.9,3.1,9.9,7.6c0,4.2-2.8,7.4-10,7.4h-15.6v-15H890.2z
			 M907.7,174.4l-17.4-0.1v-15.2h17.4c7.3,0,10.6,3.3,10.6,7.6C918.3,171.3,914.9,174.4,907.7,174.4z"/>
	</g>
</g>
</svg>
