<?xml version="1.0" encoding="UTF-8"?>
<svg width="904px" height="216px" viewBox="0 0 904 216" version="1.1" xmlns="http://www.w3.org/2000/svg" xmlns:xlink="http://www.w3.org/1999/xlink">
    <!-- Generator: Sketch 44.1 (41455) - http://www.bohemiancoding.com/sketch -->
    <title>Untitled</title>
    <desc>Created with Sketch.</desc>
    <defs></defs>
    <g id="Page-1" stroke="none" stroke-width="1" fill="none" fill-rule="evenodd">
        <g id="apslogo" fill-rule="nonzero" fill="#FFFFFF">
            <path d="M121.5,0.9 C56.6,38.6 10.4,105 0.4,182.8 C36.4,203.4 78.1,215.1 122.6,215.1 C166.2,215.1 207.2,203.8 242.7,183.9 C233.1,105.7 186.8,38.8 121.5,0.9 Z" id="Shape"></path>
            <g id="Group" transform="translate(305.000000, 51.000000)">
                <path d="M263.1,40.8 L259.5,40.1 C249.4,38.1 239.1,37.4 239.1,33.1 C239.1,29.6 243.5,28.4 250.9,28.4 C262,28.4 272.5,31.6 282,37.3 L295.2,11.5 C276.1,2.1 261.7,0.2 248.4,0.2 C223.6,0.2 207.3,12.9 204.7,30.8 C201.2,13.5 187,2 162.9,2 L113.2,2 L113.2,92.6 L78.5,2 L40.1,2 L0.1,106.4 L34.4,106.4 L40.3,89.1 L77.6,89.1 L83.6,106.4 L113.1,106.4 L118.4,106.4 L146,106.4 L146,76.6 L163.4,76.6 C189.1,76.6 203.5,63.4 205.4,44.1 C208.6,56.4 219.4,64.9 239.6,68.1 L242.9,68.6 C255.9,70.6 262,71.3 262,75.7 C262,79.4 257.6,80.5 251.4,80.5 C233.7,80.5 224.3,74.9 215.3,69.7 L200.6,94.9 C212.9,103.7 230.3,108.5 250.5,108.5 C275.5,108.5 297.2,97.5 297.2,71.5 C297.2,57.2 286.5,45.4 263.1,40.8 Z M49.7,62.1 L59.1,34.8 L68.5,62.1 L49.7,62.1 Z M162.6,48.4 L146,48.4 L146,31.2 L162.6,31.2 C167.6,31.2 172.5,34.5 172.5,39.8 C172.5,45.1 167.6,48.4 162.6,48.4 Z" id="Shape"></path>
                <path d="M582.6,54.6 C590.9,50.1 596.5,42.6 596.5,32.6 C596.5,14.7 584.5,2.1 554.4,2.1 L504.4,2.1 L504.4,92.7 L469.6,2 L431.2,2 L402.7,76.3 L354.2,76.3 L354.2,2 L321.4,2 L321.4,106.4 L391.2,106.4 L403.4,106.4 L425.6,106.4 L431.5,89.1 L468.8,89.1 L474.8,106.4 L504.3,106.4 L509.6,106.4 L557.2,106.4 C586.5,106.4 598.5,94.3 598.5,76.5 C598.6,66.9 591.8,58.1 582.6,54.6 Z M440.8,62.1 L450.2,34.8 L459.6,62.1 L440.8,62.1 Z M537.2,27.3 L553,27.3 C560.3,27.3 562.9,30.4 562.9,34.9 C562.9,39.1 560.1,42.3 552.9,42.3 L537.3,42.3 L537.3,27.3 L537.2,27.3 L537.2,27.3 Z M554.7,81.4 L537.3,81.3 L537.3,66.1 L554.7,66.1 C562,66.1 565.3,69.4 565.3,73.7 C565.3,78.3 561.9,81.4 554.7,81.4 Z" id="Shape"></path>
            </g>
        </g>
    </g>
</svg>