<?xml version="1.0" encoding="utf-8"?>
<!-- Generator: Adobe Illustrator 21.0.2, SVG Export Plug-In . SVG Version: 6.00 Build 0)  -->
<svg version="1.1" id="Livello_1" xmlns="http://www.w3.org/2000/svg" xmlns:xlink="http://www.w3.org/1999/xlink" x="0px" y="0px"
	 viewBox="0 0 200 200" style="enable-background:new 0 0 200 200;" xml:space="preserve">
<style type="text/css">
	.st0{fill:#FFFFFF;stroke:#000000;stroke-width:6;stroke-linecap:round;stroke-linejoin:round;stroke-miterlimit:10;}
</style>
<g>
	<path class="st0" d="M60.5,129H39.2c-17.6,0-32.6-13.9-32.7-31.6C6.4,80.6,19.5,66.8,36,65.6c0,0,0,0,0.1,0
		c4.3-14.1,17.5-24.3,33-24.3c7.3,0,14,2.3,19.6,6.1h0.1c7-15.7,22.7-26.6,40.9-26.6c24.7,0,44.8,20,44.8,44.8
		c0,1.9-0.1,3.9-0.4,5.7v0.1c11.4,4.4,19.4,15.6,19,28.7c-0.5,16.3-14.4,29-30.7,29H137"/>
	<polyline class="st0" points="79.2,142.1 62.8,142.1 99.7,179 136.7,142.1 118.4,142.1 118.4,69.3 	"/>
</g>
</svg>
