<?xml version="1.0" encoding="utf-8"?>
<!-- Generator: Adobe Illustrator 21.0.2, SVG Export Plug-In . SVG Version: 6.00 Build 0)  -->
<svg version="1.1" id="Livello_1" xmlns="http://www.w3.org/2000/svg" xmlns:xlink="http://www.w3.org/1999/xlink" x="0px" y="0px"
	 viewBox="0 0 300 300" style="enable-background:new 0 0 300 300;" xml:space="preserve">
<style type="text/css">
	.st0{fill:#0F8B8D;}
</style>
<g>
	<path class="st0" d="M150,16.5C76.3,16.5,16.5,76.3,16.5,150S76.3,283.5,150,283.5S283.5,223.7,283.5,150S223.7,16.5,150,16.5z
		 M163.9,239.3c-3.8,3.9-8.6,5.9-14.3,5.9c-5.5,0-10.2-2-14.1-5.9c-3.9-3.9-5.9-8.6-5.9-14.1c0-5.7,2-10.5,5.9-14.3
		s8.6-5.7,14.1-5.7c5.6,0,10.4,1.9,14.2,5.8c3.8,3.8,5.8,8.6,5.8,14.2C169.6,230.7,167.7,235.4,163.9,239.3z M198.5,126.8
		c-3.7,6.8-10.4,14.5-20.4,23.7c-9,8.2-13.6,16.3-13.8,24.1v13.7h-29.5v-14.8c0-7.3,1.5-13.9,4.5-19.6c2.9-5.7,8.3-12.1,16.4-19.6
		c7.5-7,12.7-12.5,15.3-16.4c2.4-3.7,3.6-7.8,3.6-12.6c0-7-2.1-12.4-6.5-16.4s-10.5-6.1-18.2-6.1c-13.2,0-21.9,7.2-26.6,21.9l-1,3.1
		L95.1,96.4l1-2.7c4.2-11.5,11.1-21,20.5-28.1c9.5-7.2,20.7-10.9,33.3-10.9c15.7,0,28.8,4.8,38.9,14.2c10.2,9.5,15.3,21.7,15.3,36.3
		C204.1,112.7,202.2,120,198.5,126.8z"/>
</g>
</svg>
